<?xml version="1.0" encoding="UTF-8"?>
<svg width="463px" height="438px" viewBox="0 0 463 438" version="1.1" xmlns="http://www.w3.org/2000/svg" xmlns:xlink="http://www.w3.org/1999/xlink">
    <!-- Generator: Sketch 51.3 (57544) - http://www.bohemiancoding.com/sketch -->
    <title>inboxLogo</title>
    <desc>Created with Sketch.</desc>
    <defs></defs>
    <g id="Page-1" stroke="none" stroke-width="1" fill="none" fill-rule="evenodd">
        <g id="inboxLogo" fill="#F5A623">
            <g id="InboxLogo">
                <g id="inbox" fill-rule="nonzero">
                    <path d="M46,436 C44.9,434.9 43.9905,433.2125 43.9789,432.25 C43.9673,431.2875 42.7956,427.35 41.3751,423.5 C39.9546,419.65 38.1911,414.475 37.4561,412 C35.0474,403.8885 25.4801,369.785 23.0081,360.5 C21.4419,354.6164 14.9108,332.473 14.3071,331 C13.96906,330.175 13.77744,328.7862 13.88127,327.9139 C13.9851,327.04153 12.93468,324.3415 11.54697,321.9139 C10.15926,319.4863 9.01847,316.4875 9.01187,315.25 C8.99878,312.804 8.01912,312.3807 6.31517,314.0847 C4.72007,315.6798 0.57297,314.77665 0.18677,312.75 C-0.19668,310.7381 2.52047,310.316 3.40477,312.25 C3.71913,312.9375 3.73474,312.10064 3.43947,310.3903 C3.01055,307.9059 3.59561,306.3727 6.34897,302.7656 C8.24447,300.2823 10.35307,297.1817 11.03477,295.8753 C13.05547,292.0026 41.31877,249.6753 43.33677,247.5003 C44.35707,246.4003 45.60467,244.6003 46.10927,243.5003 C46.61379,242.4003 50.15827,236.7753 53.98587,231.0003 C57.81347,225.2253 62.38417,218.0253 64.14287,215.0003 C65.90167,211.9753 68.55227,207.9253 70.03327,206.0003 C71.51417,204.0753 73.47507,201.1503 74.39077,199.5003 C78.14617,192.7334 80.21457,189.4463 81.32607,188.4773 C81.97169,187.91463 82.94987,186.7049 83.49987,185.789 C89.57087,175.679 106.62887,150.126 111.72987,143.5 C114.50707,139.8928 123.01287,127.024 123.07387,126.337 C123.11477,125.87689 125.10547,122.8004 127.49767,119.5004 C129.88987,116.2004 133.79387,110.2434 136.17327,106.2624 C140.28367,99.3858 142.91197,97.4314 144.52957,100.0487 C144.97881,100.77559 145.57817,100.76482 146.48337,100.0136 C147.20151,99.4176 148.17397,99.03147 148.64437,99.15554 C149.76327,99.45068 156.00667,97.96944 157.96677,96.94374 C158.80982,96.50261 162.64957,95.21754 166.49957,94.08804 C185.30657,88.57034 197.87357,84.79964 201.49957,83.58604 C203.69957,82.84969 210.22457,80.78994 215.99957,79.00884 C221.77457,77.22774 229.19957,74.77264 232.49957,73.55314 C235.79957,72.33354 242.54957,70.10214 247.49957,68.59424 C256.85557,65.74434 262.33857,63.82534 279.99957,57.21924 C285.77457,55.05904 293.42457,52.51744 296.99957,51.57124 C304.96427,49.46324 317.95157,45.25144 320.03257,44.10184 C320.87563,43.63598 323.12567,42.93164 325.03257,42.53654 C326.93957,42.1415 333.44977,40.10054 339.49957,38.00114 C359.49057,31.06384 358.99357,31.26034 387.49957,19.03814 C388.59957,18.56651 391.52457,17.28054 393.99957,16.18044 C396.47457,15.08034 401.87457,12.73644 405.99957,10.97184 C417.21957,6.17214 425.94657,1.89514 426.56657,0.89184 C427.39987,-0.45646 434.60957,-0.17616 435.78357,1.25017 C436.77311,2.45237 437.63137,7.01757 438.46277,15.50017 C438.67839,17.70017 440.42537,24.27477 442.34497,30.11017 C444.26457,35.94587 446.13997,42.92117 446.51247,45.61017 C446.88497,48.29947 447.86797,52.74987 448.69687,55.49987 C449.52581,58.24987 450.57247,62.07487 451.02267,63.99987 C451.47293,65.92487 452.77837,71.09987 453.92357,75.49987 C455.06877,79.89987 456.24427,84.84987 456.53577,86.49987 C456.82724,88.14987 458.13037,92.87487 459.43157,96.99987 C460.73277,101.12487 462.10797,105.98227 462.48767,107.79387 C463.35469,111.93127 461.52134,119.72387 457.98287,126.93987 C456.48367,129.99757 454.67047,134.97437 453.95357,137.99887 C453.23665,141.02387 451.80017,144.39887 450.76137,145.49887 C449.72257,146.59887 448.95457,147.04887 449.05457,146.49887 C449.15462,145.94887 449.15663,145.04887 449.05857,144.49887 C448.71455,142.56017 437.38057,165.56587 435.51057,171.99887 C435.11086,173.37387 433.54937,176.97387 432.04057,179.99887 C430.53177,183.02387 428.27997,189.09887 427.03657,193.49887 C425.79317,197.89887 423.70107,204.87587 422.38747,209.00187 C421.07387,213.12877 419.99907,217.11077 419.99907,217.85077 C419.99907,218.59077 419.38405,220.61427 418.63237,222.34737 C416.24237,227.90737 411.00237,242.11737 411.00237,243.09737 C411.00237,243.61819 410.1196,245.95187 409.04067,248.28337 C406.79327,253.13967 401.98947,266.06837 398.36267,277.02237 C396.99677,281.14737 395.51427,285.21217 395.06807,286.05517 C394.62194,286.89823 393.91607,289.13977 393.49957,291.03637 C393.083,292.93297 390.37537,300.11827 387.48267,307.00337 C384.58997,313.88867 381.91817,321.67837 381.54537,324.31437 L380.86754,329.10627 L373.68514,332.46147 C369.73484,334.30687 363.35314,336.57717 359.50314,337.50647 C355.65314,338.43587 349.35314,340.21797 345.50314,341.46667 C341.65314,342.71537 335.80314,344.56267 332.50314,345.57177 C329.20314,346.58087 324.25314,348.41247 321.50314,349.64197 C313.90974,353.03697 293.86214,360.81297 290.74414,361.57197 C289.22644,361.94161 287.73734,362.64417 287.43514,363.13327 C287.13288,363.62234 285.75804,364.02249 284.37994,364.02249 C283.00184,364.02249 279.76594,364.87917 277.18894,365.92619 C274.61194,366.97321 265.97894,369.86289 258.00394,372.34769 C250.02894,374.83249 239.45394,378.30779 234.50394,380.07059 C208.81594,389.21889 187.44494,396.49659 178.50394,399.14059 C162.33194,403.92309 125.95594,415.11259 117.00394,418.05759 C113.97894,419.05297 108.80394,420.38799 105.50394,421.02419 C102.20394,421.66046 97.70394,422.56329 95.50394,423.03049 C93.30394,423.4977 86.77894,424.38919 81.00394,425.01159 C75.22894,425.634 68.70394,426.61229 66.50394,427.18549 C59.72554,428.95169 52.41894,432.87829 51.00894,435.51239 C49.39094,438.54239 48.61094,438.62239 46.00894,436.02239 L46,436 Z M51.1667,429.2129 C51.76078,427.8101 60.3663,423.3148 65.4997,421.7253 C68.2497,420.8739 73.8747,419.9018 77.9997,419.5651 C92.3587,418.3931 106.4967,415.371 122.9997,409.9465 C131.399,407.1856 152.3717,400.5968 153.4997,400.3647 C157.0445,399.63519 177.7157,393.0826 189.4997,388.9527 C197.1997,386.2543 212.7247,380.9444 223.9997,377.1527 C235.2747,373.3613 245.8497,369.7728 247.4997,369.1781 C249.1497,368.58348 262.6497,364.1834 277.4997,359.4002 C292.3497,354.617 304.9497,350.3719 305.4997,349.9667 C307.5527,348.4542 332.9247,339.1017 344.4997,335.5897 C365.2397,329.2983 370.0707,327.5783 371.5307,325.9653 C374.4845,322.7014 372.7499,308.5843 368.7454,303.2973 C368.24466,302.63619 368.11117,301.2251 368.44875,300.1615 C368.79576,299.0681 367.72762,294.5925 365.99105,289.8635 C364.31105,285.2735 362.72105,279.4935 362.47105,277.0135 C362.00438,272.4145 357.89635,257.8955 351.01205,236.5135 C348.88695,229.9135 345.95075,220.4635 344.48705,215.5135 C339.78665,199.6175 338.94025,197.7785 336.59055,198.3595 C329.24375,200.1764 326.17855,201.305 314.50855,206.4899 C307.35855,209.6667 297.48455,213.8239 292.56655,215.7283 C283.76075,219.1381 269.64655,225.6679 251.03055,234.9453 C240.10655,240.3891 240.03955,240.503 238.03055,257.3303 C237.41591,262.4781 236.21665,269.1253 235.36545,272.1013 C234.5143,275.0778 233.59085,278.709 233.31335,280.1706 C232.90943,282.298 232.08075,282.9617 229.15875,283.498 C223.71345,284.49737 216.87075,286.7933 203.30175,292.1732 C196.59175,294.8332 190.56175,297.0132 189.90175,297.0132 C189.24529,297.0132 186.41325,298.1077 183.60825,299.4454 C180.80325,300.7831 175.58335,303.0113 172.00825,304.3968 C168.43325,305.7824 162.14275,308.3108 158.02925,310.0156 C153.83045,311.7558 149.62495,312.8829 148.44025,312.5855 C147.27965,312.29422 142.86875,309.7963 138.63815,307.0345 C134.40815,304.2745 130.53815,302.0145 130.04815,302.0145 C129.55508,302.0145 128.31345,301.002 127.28885,299.7645 C126.26435,298.527 124.72395,297.0645 123.86585,296.5145 C123.00774,295.9645 120.36655,294.1645 117.99655,292.5145 C115.62655,290.8645 112.68775,288.8395 111.46605,288.0145 C110.24425,287.1895 107.58445,285.1995 105.55525,283.5922 L101.86595,280.6699 L96.68625,282.4595 C90.73715,284.5149 74.47325,290.6601 71.50625,291.9735 C55.75425,298.9469 44.54625,303.5875 40.04225,305.0005 C36.99725,305.95595 31.25225,307.7287 27.27525,308.9399 C23.29855,310.1511 19.78445,311.5634 19.46625,312.0783 C19.14825,312.5883 18.43825,313.0083 17.88825,313.0083 C17.33825,313.0083 17.16637,312.5583 17.50628,312.0083 C17.8462,311.4583 17.39986,311.0083 16.51441,311.0083 C15.18601,311.0083 15.31521,311.57663 17.25296,314.2583 C18.82636,316.4357 19.52876,318.6604 19.38136,320.9992 C19.26033,322.9192 19.68893,325.1431 20.3338,325.9412 C21.27166,327.1019 21.22523,327.2228 20.10178,326.54576 C19.08148,325.93086 18.92168,326.06244 19.51768,327.02674 C19.9689,327.75683 20.72198,330.18884 21.19108,332.43124 C22.32018,337.82784 22.37488,338.02834 23.66708,341.50834 C24.27978,343.15834 25.49598,347.20834 26.36968,350.50834 C31.94258,371.55634 33.69458,377.77434 37.07668,388.50834 C39.15648,395.10834 41.55898,403.54134 42.41548,407.24934 C43.272,410.95684 45.10518,416.68084 46.48928,419.96934 C47.87428,423.25934 49.00628,426.85934 49.00628,427.97934 C49.00628,429.95114 50.50108,430.80874 51.17298,429.22244 L51.1667,429.2129 Z M165.1967,363.7429 C164.62357,363.05232 163.8344,361.1398 163.443,359.4929 C163.0516,357.846 161.8797,355.5581 160.8387,354.4086 C158.3827,351.6966 156.9341,346.5468 157.6378,343.0286 C157.94424,341.4964 157.6358,339.198 156.95233,337.9209 C155.83093,335.8255 156.0227,335.3377 158.91823,332.9204 C162.88783,329.6065 165.09943,328.504 181.99423,321.4184 C189.41923,318.3041 197.29423,314.9238 199.49423,313.9066 C204.60423,311.5466 220.26423,306.0066 221.83423,306.0066 C222.48932,306.0066 223.80673,305.57238 224.76173,305.04167 C229.30413,302.51747 236.31773,299.92087 237.82273,300.20597 C238.99323,300.42764 239.58673,301.72617 239.79203,304.51497 C240.25299,310.77697 242.89923,322.96097 245.14183,329.14797 C246.26653,332.25057 247.03183,335.53847 246.84243,336.45447 C246.50462,338.08847 236.99793,342.71347 231.99843,343.67617 C230.62343,343.94092 228.59843,344.55805 227.49843,345.04757 C224.81193,346.24307 214.70143,347.94107 213.75443,347.35577 C213.33443,347.09577 212.99443,347.61577 212.99443,348.50577 C212.99443,349.39569 212.60081,349.88057 212.11971,349.58317 C211.63862,349.28583 207.25111,350.65307 202.36971,352.62147 C197.48831,354.58987 191.24471,357.07347 188.49471,358.14047 C183.71901,359.99357 180.93331,361.19617 174.67971,364.10427 C172.58401,365.07884 171.68291,365.11927 171.15331,364.26233 C170.68812,363.50965 169.93201,363.43382 168.96831,364.04323 C167.00761,365.28313 166.43271,365.23843 165.19751,363.75017 L165.1967,363.7429 Z M181.9967,354.7029 C192.6617,350.1018 205.2417,345.7314 216.9967,342.5439 C222.3845,341.0827 238.4567,335.3009 239.9067,334.3025 C240.13206,334.14725 239.14893,330.0796 237.722,325.2633 C236.295,320.447 234.8463,314.3733 234.5025,311.7663 L233.87747,307.0265 L230.18727,308.8943 C228.15767,309.9216 224.92207,311.0937 222.99707,311.4989 C218.99557,312.34123 192.51507,322.6859 189.49707,324.5859 C188.39707,325.27839 183.22207,327.5034 177.99707,329.5304 C169.76417,332.7243 163.25407,335.6071 162.17807,336.5358 C162.00245,336.68731 162.41118,338.6551 163.08636,340.9086 C164.23976,344.7584 165.28676,345.53 168.74736,345.0806 C170.51936,344.85049 170.30466,347.674 168.49736,348.3676 C166.68926,349.06142 166.47776,352.9996 168.24736,353.0213 C169.2377,353.0334 169.23521,353.20303 168.23536,353.83772 C167.25853,354.45782 167.22666,355.36542 168.09434,357.85442 C168.8639,360.06202 169.57294,360.78202 170.35634,360.15132 C170.9839,359.64606 176.22234,357.19422 181.99734,354.70282 L181.99736,354.70282 L181.9967,354.7029 Z M390.0067,285.0029 C393.7078,274.2779 398.1837,261.6779 399.9531,257.0029 C409.0894,232.8639 415.1231,215.4659 420.0681,199.0029 C425.3191,181.5199 425.5328,180.9459 432.5291,165.5029 C439.9351,149.1559 444.0881,139.5769 445.8601,134.7499 C449.0966,125.9355 453.712,117.3269 455.5869,116.6069 C456.9808,116.072 457.1779,115.0317 456.7221,110.6152 C456.41873,107.6758 455.2814,103.2979 454.1946,100.8866 C453.1079,98.4753 451.9083,94.0275 451.5289,91.0025 C451.14949,87.9775 450.4558,84.1525 449.9873,82.5025 C447.7376,74.5788 442.0628,50.5305 440.5483,42.5025 C439.61447,37.5525 438.223,32.1525 437.456,30.5025 C436.68909,28.8525 435.4829,25.7025 434.7756,23.5025 C434.06827,21.3025 433.0415,19.5644 432.4939,19.64 C430.9158,19.85799 424.4129,31.001 414.1909,51.002 C408.9908,61.177 401.9239,74.002 398.4879,79.502 C389.9901,93.102 374.8539,122.106 370.0259,134.042 C368.8112,137.0449 366.9888,141.5268 365.9761,144.0018 C364.9634,146.4768 362.7899,152.1018 361.146,156.5018 C355.4604,171.7208 348.122,188.0018 346.948,188.0018 C343.7034,188.0018 346.17656,199.7088 355.3982,228.0018 C365.6182,259.3588 366.0622,260.8758 368.9962,274.5018 C370.5356,281.6518 373.4252,291.4368 375.4175,296.2448 C377.8865,302.2042 378.8398,305.7856 378.4114,307.4928 C378.06569,308.8702 378.10527,310.7856 378.4993,311.7494 C379.49457,314.1834 381.7278,308.9925 390.0063,285.0014 L390.00634,285.0014 L390.0067,285.0029 Z M163.5767,301.4449 C166.9212,300.1873 171.3811,298.1904 173.4875,297.0073 C175.5939,295.8242 181.6325,293.5075 186.9065,291.8591 C192.1805,290.2107 197.3955,288.4931 198.4955,288.0422 C207.1019,284.5141 216.4475,280.9519 221.4855,279.2797 C227.1337,277.4049 227.5699,277.0285 229.1221,272.6899 C230.02755,270.1591 231.5171,262.5889 232.4323,255.8679 C233.34744,249.1468 234.3851,243.1799 234.7382,242.6089 C235.09132,242.03755 235.6342,240.0076 235.9446,238.0979 C236.4185,235.1824 237.0466,234.4864 239.8626,233.7567 C241.7071,233.27874 244.854,231.8694 246.8557,230.6248 C248.8574,229.3802 252.3147,227.6468 254.5385,226.7728 C256.7623,225.8988 264.1873,222.4926 271.0385,219.2035 C277.8897,215.9144 285.9705,212.3174 288.9955,211.2102 C292.0205,210.103 299.8955,206.8618 306.4955,204.0075 C313.0955,201.1532 322.7705,197.247 327.9955,195.3271 C333.2205,193.4072 338.6535,191.4074 340.0685,190.8831 C342.0449,190.15082 343.61,187.7554 346.8185,180.5521 C349.1158,175.3941 350.9955,170.9237 350.9955,170.6179 C350.9955,170.31203 352.0892,167.6707 353.426,164.7482 C355.7735,159.616 357.5823,154.9204 360.4545,146.5022 C361.20513,144.3022 362.7791,140.082 363.9521,137.1239 C366.4577,130.8056 367.0531,130.8423 353.9955,136.51108 C344.6771,140.55658 342.4545,141.37018 336.4955,142.91788 C327.5052,145.25288 295.2195,155.48288 283.9955,159.55288 C281.5205,160.45037 274.7507,162.43388 268.9515,163.96058 C263.1523,165.48738 254.3775,168.30578 249.4515,170.22378 C244.5257,172.14178 233.4885,176.43758 224.9235,179.77008 C216.359,183.10258 207.5235,186.32128 205.2895,186.92288 C203.0556,187.52441 200.6744,188.68338 199.9981,189.49838 C199.32171,190.31337 198.421,190.76558 197.9965,190.50318 C196.8341,189.78479 190.9949,192.04778 190.9949,193.21668 C190.9949,193.77702 190.0529,193.98914 188.9016,193.68806 C185.5983,192.82424 180.3553,196.09696 177.9846,200.50226 C176.8008,202.70226 171.9313,211.12226 167.1636,219.21426 C158.2359,234.36526 152.3366,245.37226 150.3716,250.54526 C149.75388,252.17146 148.651,255.07696 147.9207,257.00196 C147.19042,258.92696 145.433,262.52696 144.0154,265.00196 C142.5978,267.47696 140.575,271.52696 139.5204,274.00196 C138.4658,276.47696 136.7911,279.69646 135.7988,281.15636 C134.80656,282.61626 133.9947,284.12026 133.9947,284.49866 C133.9947,284.87701 133.0947,286.33076 131.9947,287.72916 C130.8947,289.12756 129.9947,291.01496 129.9947,291.92346 C129.9947,293.78816 137.9831,300.06556 145.4947,304.10346 C150.2743,306.67286 150.649,306.72386 153.9947,305.26096 C155.9197,304.41926 160.2311,302.70166 163.5756,301.44416 L163.5767,301.4449 Z M27.9967,302.4649 C32.6717,301.0603 40.9967,298.0794 46.4967,295.8405 C64.9617,288.3243 68.4777,286.8667 72.4967,285.0645 C74.6967,284.07787 77.6217,282.9369 78.9967,282.5289 C80.3717,282.12097 82.8467,281.2048 84.4967,280.493 C90.0324,278.1048 100.3617,275.0097 102.7967,275.0097 C104.123,275.0097 106.4776,276.0222 108.0292,277.2597 C109.5808,278.4972 113.83,281.7219 117.4719,284.4257 C125.0722,290.0682 124.7503,290.1689 130.0009,280.5097 C137.026,267.5847 139.2016,263.2857 141.6399,257.5097 C147.5325,243.5507 151.4481,235.3237 153.5389,232.5097 C154.7647,230.8597 158.0898,225.4597 160.9279,220.5097 C163.7661,215.5597 168.166,208.2337 170.7055,204.2287 L175.3229,196.9477 L172.5401,186.7287 C171.0101,181.1087 168.7401,173.3587 167.4901,169.5087 C166.2431,165.6587 164.8943,160.9683 164.4928,159.0857 C163.2824,153.4105 155.3454,134.6447 150.1988,125.2917 C147.5413,120.4613 144.7853,115.0617 144.0745,113.2927 C141.9998,108.1288 140.5099,107.4917 138.3574,110.8483 C137.3343,112.4437 133.967,117.5202 130.8744,122.1293 C127.7818,126.7385 123.138,133.8843 120.5544,138.0093 C117.9712,142.1343 113.8896,148.2093 111.4843,151.5093 C100.8873,166.0473 80.2733,196.9023 70.5763,212.7403 C68.9702,215.3635 63.7952,223.3043 59.0763,230.3863 C54.3574,237.4684 50.039,243.9933 49.4798,244.8863 C48.92059,245.7792 40.2581,258.8393 30.2298,273.9093 C13.4308,299.1543 10.4478,304.0853 12.8918,302.5753 C13.38417,302.271 14.045,302.69444 14.3604,303.51628 C15.17122,305.62928 18.2586,305.39138 27.9964,302.46568 L27.9967,302.4649 Z M191.9067,185.4249 C202.5317,182.4122 210.5127,179.8477 214.9947,178.0056 C231.4077,171.2602 237.9797,168.506 241.4947,166.8996 C246.9949,164.3856 259.0877,160.2408 267.4947,157.988 C283.9967,153.5662 304.8567,147.234 307.2997,145.905 C308.29272,145.36495 313.2427,143.8057 318.2997,142.4399 C323.3567,141.0741 329.7447,139.2749 332.4947,138.4416 C335.2447,137.60831 339.2579,136.4759 341.4129,135.9251 C343.5679,135.3743 346.4929,134.3159 347.9129,133.573 C350.8836,132.0189 363.2679,126.5761 367.0519,125.1615 C368.8818,124.47743 370.8031,121.8316 373.8079,115.8575 C383.0971,97.3895 391.1689,82.4915 392.0559,82.1765 C392.5721,81.99316 392.99445,81.29431 392.99445,80.6235 C392.99445,79.95268 394.29505,77.6277 395.88465,75.4568 C397.47425,73.286 401.22975,66.7775 404.23015,60.9938 C407.23055,55.2099 410.14855,49.5848 410.71475,48.4938 C411.28475,47.3968 412.62475,44.7038 413.69475,42.5038 C417.83475,34.0388 423.34475,24.3138 426.51475,19.8728 C429.58475,15.5728 432.99475,9.6778 432.99475,8.6688 C432.99475,8.42974 431.94865,7.5487 430.67005,6.711 C428.51345,5.2979 428.02545,5.3842 423.92005,7.9037 C421.48615,9.3974 417.91975,11.2235 415.99475,11.9618 C410.44595,14.0897 399.03075,18.9499 392.49475,21.9668 C389.19475,23.4902 385.36975,25.0815 383.99475,25.5031 C382.61975,25.92472 378.20515,27.7822 374.18455,29.6309 C360.17255,36.0738 323.07555,49.1979 303.80455,54.5289 C296.12045,56.6548 279.12155,62.6851 265.99455,67.9409 C263.51955,68.93197 256.76955,71.1718 250.99455,72.9183 C245.21955,74.6648 237.11955,77.3701 232.99455,78.9301 C228.86955,80.4901 220.99455,83.0097 215.49455,84.5292 C209.99455,86.0487 200.99455,88.7603 195.49455,90.5549 C189.99455,92.3495 180.54455,95.236 174.49455,96.9693 C168.44455,98.7026 161.69455,100.7406 159.49455,101.4982 C157.29455,102.25574 153.87035,103.1378 151.88515,103.4584 L148.27575,104.04128 L150.15055,109.72428 C151.18175,112.84998 152.86675,116.32888 153.89505,117.45538 C154.92335,118.58178 156.07175,120.51588 156.44705,121.75338 C156.82233,122.99088 157.57565,124.00338 158.12105,124.00338 C158.66645,124.00338 158.85832,124.41495 158.54744,124.91797 C158.23655,125.42099 158.33491,125.98347 158.76602,126.16797 C159.19712,126.35245 162.96822,133.47837 167.14632,142.00297 C183.17632,174.70997 186.24832,181.85497 185.52532,184.73897 C184.84879,187.43447 184.81212,187.43057 191.90722,185.4188 L191.9067,185.4249 Z M415.9967,15.1249 C415.9967,14.5749 416.4467,13.8468 416.9967,13.5069 C417.5467,13.16698 417.9967,13.33887 417.9967,13.88887 C417.9967,14.43887 417.5467,15.16697 416.9967,15.50687 C416.4467,15.84679 415.9967,15.6749 415.9967,15.1249 Z M178.5967,181.3149 C176.8138,178.0261 176.4907,179.6107 178.11251,183.6899 C178.72807,185.2382 179.43161,185.9695 179.67591,185.3149 C179.92019,184.66038 179.43457,182.8604 178.59671,181.3149 L178.5967,181.3149 Z" id="path3303"></path>
                </g>
                <text id="INBOX!" transform="translate(284.242759, 120.314040) rotate(-18.000000) translate(-284.242759, -120.314040) " font-family="Avenir-Black, Avenir" font-size="36" font-weight="700">
                    <tspan x="216.616759" y="131.81404">INBOX!</tspan>
                </text>
                <text id="Ethereum-Dapp-Demo-b" transform="translate(217.077124, 362.954099) rotate(-20.000000) translate(-217.077124, -362.954099) " font-family="Avenir-Black, Avenir" font-size="12" font-weight="700">
                    <tspan x="90.099124" y="366.954099">Ethereum Dapp Demo by Dr. Enrico Zanardo</tspan>
                </text>
            </g>
            <text id="Say-something-to" transform="translate(275.716423, 80.909973) rotate(-18.000000) translate(-275.716423, -80.909973) " font-family="Avenir-Black, Avenir" font-size="18" font-weight="700">
                <tspan x="201.574423" y="86.4099725">Say something to</tspan>
            </text>
        </g>
    </g>
</svg>